<mxfile host="app.diagrams.net" modified="2024-06-04T18:50:43.925Z" agent="Mozilla/5.0 (X11; Linux x86_64) AppleWebKit/537.36 (KHTML, like Gecko) Chrome/125.0.0.0 Safari/537.36" etag="z5uE0pIpIHKHe6q3sE2g" version="24.4.13" type="github">
  <diagram name="Page-1" id="64GrZF03az_O2nVdZtRv">
    <mxGraphModel dx="1434" dy="789" grid="1" gridSize="10" guides="1" tooltips="1" connect="1" arrows="1" fold="1" page="1" pageScale="1" pageWidth="850" pageHeight="1100" math="0" shadow="0">
      <root>
        <mxCell id="0" />
        <mxCell id="1" parent="0" />
        <mxCell id="jnoizhIGTQw5HBxiTV8I-7" style="edgeStyle=orthogonalEdgeStyle;rounded=1;orthogonalLoop=1;jettySize=auto;html=1;exitX=0;exitY=0.5;exitDx=0;exitDy=0;entryX=0;entryY=0.5;entryDx=0;entryDy=0;curved=0;endArrow=none;endFill=0;startArrow=ERmandOne;startFill=0;" edge="1" parent="1" source="jnoizhIGTQw5HBxiTV8I-1" target="jnoizhIGTQw5HBxiTV8I-5">
          <mxGeometry relative="1" as="geometry" />
        </mxCell>
        <mxCell id="jnoizhIGTQw5HBxiTV8I-1" value="Mueble" style="whiteSpace=wrap;html=1;align=center;" vertex="1" parent="1">
          <mxGeometry x="170" y="320" width="100" height="40" as="geometry" />
        </mxCell>
        <mxCell id="jnoizhIGTQw5HBxiTV8I-10" style="edgeStyle=orthogonalEdgeStyle;rounded=1;orthogonalLoop=1;jettySize=auto;html=1;exitX=1;exitY=0.5;exitDx=0;exitDy=0;entryX=0;entryY=0.5;entryDx=0;entryDy=0;endArrow=none;endFill=0;curved=0;startArrow=ERoneToMany;startFill=0;" edge="1" parent="1" source="jnoizhIGTQw5HBxiTV8I-2" target="jnoizhIGTQw5HBxiTV8I-9">
          <mxGeometry relative="1" as="geometry" />
        </mxCell>
        <mxCell id="jnoizhIGTQw5HBxiTV8I-2" value="Pieza" style="whiteSpace=wrap;html=1;align=center;" vertex="1" parent="1">
          <mxGeometry x="220" y="520" width="100" height="40" as="geometry" />
        </mxCell>
        <mxCell id="jnoizhIGTQw5HBxiTV8I-13" style="edgeStyle=orthogonalEdgeStyle;rounded=1;orthogonalLoop=1;jettySize=auto;html=1;exitX=1;exitY=0.5;exitDx=0;exitDy=0;entryX=1;entryY=0.5;entryDx=0;entryDy=0;curved=0;endArrow=none;endFill=0;startArrow=ERzeroToOne;startFill=0;" edge="1" parent="1" source="jnoizhIGTQw5HBxiTV8I-3" target="jnoizhIGTQw5HBxiTV8I-12">
          <mxGeometry relative="1" as="geometry" />
        </mxCell>
        <mxCell id="jnoizhIGTQw5HBxiTV8I-3" value="Almacen" style="whiteSpace=wrap;html=1;align=center;" vertex="1" parent="1">
          <mxGeometry x="580" y="320" width="100" height="40" as="geometry" />
        </mxCell>
        <mxCell id="jnoizhIGTQw5HBxiTV8I-4" value="Estante" style="whiteSpace=wrap;html=1;align=center;" vertex="1" parent="1">
          <mxGeometry x="540" y="520" width="100" height="40" as="geometry" />
        </mxCell>
        <mxCell id="jnoizhIGTQw5HBxiTV8I-8" style="edgeStyle=orthogonalEdgeStyle;rounded=1;orthogonalLoop=1;jettySize=auto;html=1;exitX=1;exitY=0.5;exitDx=0;exitDy=0;entryX=0.5;entryY=0;entryDx=0;entryDy=0;curved=0;endArrow=ERzeroToMany;endFill=0;" edge="1" parent="1" source="jnoizhIGTQw5HBxiTV8I-5" target="jnoizhIGTQw5HBxiTV8I-2">
          <mxGeometry relative="1" as="geometry" />
        </mxCell>
        <mxCell id="jnoizhIGTQw5HBxiTV8I-5" value="compuesto" style="shape=rhombus;perimeter=rhombusPerimeter;whiteSpace=wrap;html=1;align=center;" vertex="1" parent="1">
          <mxGeometry x="180" y="410" width="120" height="60" as="geometry" />
        </mxCell>
        <mxCell id="jnoizhIGTQw5HBxiTV8I-11" style="edgeStyle=orthogonalEdgeStyle;rounded=1;orthogonalLoop=1;jettySize=auto;html=1;exitX=1;exitY=0.5;exitDx=0;exitDy=0;entryX=0;entryY=0.5;entryDx=0;entryDy=0;endArrow=ERzeroToOne;endFill=0;curved=0;" edge="1" parent="1" source="jnoizhIGTQw5HBxiTV8I-9" target="jnoizhIGTQw5HBxiTV8I-4">
          <mxGeometry relative="1" as="geometry" />
        </mxCell>
        <mxCell id="jnoizhIGTQw5HBxiTV8I-9" value="almacenada" style="shape=rhombus;perimeter=rhombusPerimeter;whiteSpace=wrap;html=1;align=center;" vertex="1" parent="1">
          <mxGeometry x="370" y="510" width="120" height="60" as="geometry" />
        </mxCell>
        <mxCell id="jnoizhIGTQw5HBxiTV8I-14" style="edgeStyle=orthogonalEdgeStyle;rounded=1;orthogonalLoop=1;jettySize=auto;html=1;exitX=0;exitY=0.5;exitDx=0;exitDy=0;entryX=0.5;entryY=0;entryDx=0;entryDy=0;curved=0;endArrow=ERoneToMany;endFill=0;startArrow=none;startFill=0;" edge="1" parent="1" source="jnoizhIGTQw5HBxiTV8I-12" target="jnoizhIGTQw5HBxiTV8I-4">
          <mxGeometry relative="1" as="geometry" />
        </mxCell>
        <mxCell id="jnoizhIGTQw5HBxiTV8I-12" value="ubicado" style="shape=rhombus;perimeter=rhombusPerimeter;whiteSpace=wrap;html=1;align=center;" vertex="1" parent="1">
          <mxGeometry x="550" y="410" width="120" height="60" as="geometry" />
        </mxCell>
        <mxCell id="jnoizhIGTQw5HBxiTV8I-17" style="edgeStyle=orthogonalEdgeStyle;rounded=1;orthogonalLoop=1;jettySize=auto;html=1;exitX=0.5;exitY=1;exitDx=0;exitDy=0;entryX=0.5;entryY=0;entryDx=0;entryDy=0;curved=0;endArrow=none;endFill=0;" edge="1" parent="1" source="jnoizhIGTQw5HBxiTV8I-15" target="jnoizhIGTQw5HBxiTV8I-1">
          <mxGeometry relative="1" as="geometry" />
        </mxCell>
        <mxCell id="jnoizhIGTQw5HBxiTV8I-15" value="nombre" style="ellipse;whiteSpace=wrap;html=1;align=center;fontStyle=4;" vertex="1" parent="1">
          <mxGeometry x="80" y="240" width="100" height="40" as="geometry" />
        </mxCell>
        <mxCell id="jnoizhIGTQw5HBxiTV8I-18" style="edgeStyle=orthogonalEdgeStyle;rounded=1;orthogonalLoop=1;jettySize=auto;html=1;exitX=0.5;exitY=1;exitDx=0;exitDy=0;endArrow=none;endFill=0;curved=0;" edge="1" parent="1" source="jnoizhIGTQw5HBxiTV8I-16">
          <mxGeometry relative="1" as="geometry">
            <mxPoint x="220" y="320" as="targetPoint" />
          </mxGeometry>
        </mxCell>
        <mxCell id="jnoizhIGTQw5HBxiTV8I-16" value="precio" style="ellipse;whiteSpace=wrap;html=1;align=center;" vertex="1" parent="1">
          <mxGeometry x="250" y="240" width="100" height="40" as="geometry" />
        </mxCell>
        <mxCell id="jnoizhIGTQw5HBxiTV8I-22" style="edgeStyle=orthogonalEdgeStyle;rounded=1;orthogonalLoop=1;jettySize=auto;html=1;exitX=0.5;exitY=0;exitDx=0;exitDy=0;entryX=0.5;entryY=1;entryDx=0;entryDy=0;endArrow=none;endFill=0;curved=0;" edge="1" parent="1" source="jnoizhIGTQw5HBxiTV8I-19" target="jnoizhIGTQw5HBxiTV8I-2">
          <mxGeometry relative="1" as="geometry" />
        </mxCell>
        <mxCell id="jnoizhIGTQw5HBxiTV8I-19" value="identificador" style="ellipse;whiteSpace=wrap;html=1;align=center;fontStyle=4;" vertex="1" parent="1">
          <mxGeometry x="140" y="600" width="100" height="40" as="geometry" />
        </mxCell>
        <mxCell id="jnoizhIGTQw5HBxiTV8I-23" style="edgeStyle=orthogonalEdgeStyle;rounded=1;orthogonalLoop=1;jettySize=auto;html=1;exitX=0.5;exitY=0;exitDx=0;exitDy=0;entryX=0.5;entryY=1;entryDx=0;entryDy=0;endArrow=none;endFill=0;curved=0;" edge="1" parent="1" source="jnoizhIGTQw5HBxiTV8I-20" target="jnoizhIGTQw5HBxiTV8I-2">
          <mxGeometry relative="1" as="geometry" />
        </mxCell>
        <mxCell id="jnoizhIGTQw5HBxiTV8I-20" value="descripcion" style="ellipse;whiteSpace=wrap;html=1;align=center;" vertex="1" parent="1">
          <mxGeometry x="220" y="660" width="100" height="40" as="geometry" />
        </mxCell>
        <mxCell id="jnoizhIGTQw5HBxiTV8I-24" style="edgeStyle=orthogonalEdgeStyle;rounded=1;orthogonalLoop=1;jettySize=auto;html=1;exitX=0.5;exitY=0;exitDx=0;exitDy=0;entryX=0.5;entryY=1;entryDx=0;entryDy=0;endArrow=none;endFill=0;curved=0;" edge="1" parent="1" source="jnoizhIGTQw5HBxiTV8I-21" target="jnoizhIGTQw5HBxiTV8I-2">
          <mxGeometry relative="1" as="geometry" />
        </mxCell>
        <mxCell id="jnoizhIGTQw5HBxiTV8I-21" value="material" style="ellipse;whiteSpace=wrap;html=1;align=center;" vertex="1" parent="1">
          <mxGeometry x="300" y="600" width="100" height="40" as="geometry" />
        </mxCell>
      </root>
    </mxGraphModel>
  </diagram>
</mxfile>
